<?xml version="1.0" encoding="UTF-8" standalone="no"?>
<!DOCTYPE svg PUBLIC "-//W3C//DTD SVG 1.1//EN" "http://www.w3.org/Graphics/SVG/1.1/DTD/svg11.dtd">
<svg version="1.1" xmlns="http://www.w3.org/2000/svg" xmlns:xlink="http://www.w3.org/1999/xlink" preserveAspectRatio="xMidYMid meet" viewBox="0 0 1200 1200" width="1200" height="1200"><defs><path d="M1150 600C1150 903.55 903.56 1150 600 1150C296.45 1150 50 903.55 50 600C50 296.45 296.45 50 600 50C903.56 50 1150 296.45 1150 600Z" id="iyXG0BuIY"></path><path d="M201.71 200.02L1001.09 999.07L201.71 999.07L201.71 200.02Z" id="b8OdHkCj3"></path><path d="M225.75 200.01L1000.74 200.01L1000.74 325.01L225.75 325.01L225.75 200.01Z" id="j1X0EvHPH"></path><path d="M202.74 200.01L327.68 200.01L327.86 975L202.93 975L202.74 200.01Z" id="e2cvIcEsad"></path><path d="M1002.83 200.01L877.8 200L877.73 974.99L1002.76 975L1002.83 200.01Z" id="a61FGvA05m"></path><path d="M690.94 562.29L602.56 650.68L240.27 288.4L328.66 200.01L690.94 562.29Z" id="brZZ0Nuk6"></path><path d="M878.37 200.01L966.76 288.4L604.95 650.2L516.56 561.82L878.37 200.01Z" id="ceqPmTU28"></path><path d="M201.56 875.08L1002.95 875.08L1002.95 1000L201.56 1000L201.56 875.08Z" id="azmxi1WHL"></path><path d="M628.36 626.6L290.75 964.21L201.56 875.02L539.17 537.41L628.36 626.6Z" id="c2z5SSUZU"></path></defs><g><g><g><use xlink:href="#iyXG0BuIY" opacity="1" fill="#54b3d7" fill-opacity="1"></use></g><g><g></g><use xlink:href="#b8OdHkCj3" opacity="1" fill="#01001e" fill-opacity="1"></use></g><g><use xlink:href="#j1X0EvHPH" opacity="1" fill="#ffffff" fill-opacity="1"></use></g><g><g><use xlink:href="#e2cvIcEsad" opacity="1" fill="#01001e" fill-opacity="1"></use></g><g><use xlink:href="#a61FGvA05m" opacity="1" fill="#01001e" fill-opacity="1"></use></g><g><use xlink:href="#brZZ0Nuk6" opacity="1" fill="#01001e" fill-opacity="1"></use></g><g><use xlink:href="#ceqPmTU28" opacity="1" fill="#01001e" fill-opacity="1"></use></g></g><g><use xlink:href="#azmxi1WHL" opacity="1" fill="#ffffff" fill-opacity="1"></use><g></g></g><g><use xlink:href="#c2z5SSUZU" opacity="1" fill="#ffffff" fill-opacity="1"></use></g></g></g></svg>